<svg width="263" height="238" viewBox="0 0 263 238" fill="none" xmlns="http://www.w3.org/2000/svg">
<mask id="mask0_4_15" style="mask-type:luminance" maskUnits="userSpaceOnUse" x="0" y="0" width="263" height="238">
<path d="M0 0H263V237.081H0V0Z" fill="white"/>
</mask>
<g mask="url(#mask0_4_15)">
<path d="M32.875 207.446H224.646Z" fill="white"/>
<path d="M32.875 207.446H224.646" stroke="#333333" stroke-width="8" stroke-linecap="round"/>
<path d="M201.37 155.239L59.4271 110.993C48.6331 107.635 43.2416 105.955 39.5925 102.557C37.9467 101.02 36.5884 99.2515 35.5708 97.3217C33.3133 93.074 33.4448 87.9274 33.7078 77.6341L33.7517 76.1326C34.3215 54.2915 34.6064 43.3661 39.1213 40.5013C41.489 38.9989 44.4201 38.4023 47.2743 38.8418C52.7206 39.6814 58.1888 49.4314 69.1142 68.9313C70.5826 71.5491 71.3059 72.8629 72.4017 73.9001C72.9975 74.4736 73.667 74.981 74.3961 75.4115C75.7111 76.182 77.2672 76.6068 80.3903 77.4563L89.5077 79.9457C97.8908 82.2177 102.088 83.3636 105.408 82.3461C107.432 81.7263 109.211 80.5863 110.526 79.0665C112.685 76.5772 112.871 72.6357 113.243 64.7429C114.142 45.7863 114.58 36.3129 118.723 33.5075C119.93 32.6861 121.312 32.0989 122.783 31.7826C124.254 31.4664 125.782 31.4281 127.27 31.6701C132.366 32.5097 137.494 40.7878 147.74 57.3637L168.616 91.1181C171.947 96.492 173.613 99.1888 176.057 101.263C178.5 103.348 181.569 104.701 187.716 107.388L217.391 120.427C222.192 122.532 225.919 126.211 227.812 130.711C229.704 135.21 229.619 140.192 227.573 144.637C225.528 149.082 221.676 152.654 216.806 154.625C211.935 156.596 206.414 156.815 201.37 155.239Z" fill="white" stroke="#333333" stroke-width="8"/>
</g>
</svg>
