<svg width="316" height="285" viewBox="0 0 316 285" fill="none" xmlns="http://www.w3.org/2000/svg">
<path d="M236.388 81.9471C236.387 99.3627 232.513 116.552 225.056 132.228L198.315 188.468C185.23 215.974 178.687 229.727 169.401 233.411C163.462 235.769 156.869 235.769 150.93 233.411C141.643 229.727 135.101 215.974 122.016 188.468L95.2741 132.215C87.819 116.543 83.9451 99.3583 83.9423 81.9471C83.9423 39.4472 118.395 5 160.165 5C201.935 5 236.388 39.4472 236.388 81.9471Z" stroke="white" stroke-width="10"/>
<path d="M185.573 82.5545C185.573 89.4108 182.896 95.9862 178.131 100.834C173.366 105.682 166.904 108.406 160.165 108.406C153.427 108.406 146.964 105.682 142.199 100.834C137.435 95.9862 134.758 89.4108 134.758 82.5545C134.758 75.6983 137.435 69.1228 142.199 64.2747C146.964 59.4266 153.427 56.703 160.165 56.703C166.904 56.703 173.366 59.4266 178.131 64.2747C182.896 69.1228 185.573 75.6983 185.573 82.5545Z" fill="white"/>
<line y1="-5" x2="315.001" y2="-5" transform="matrix(0.999996 0.00279524 -0.00270007 0.999996 0 284.12)" stroke="white" stroke-width="10"/>
</svg>
